<?xml version="1.0" encoding="UTF-8"?> <!-- Generator: Adobe Illustrator 23.0.3, SVG Export Plug-In . SVG Version: 6.00 Build 0) --> <svg xmlns="http://www.w3.org/2000/svg" xmlns:xlink="http://www.w3.org/1999/xlink" id="Capa_1" x="0px" y="0px" width="1403.5px" height="374.6px" viewBox="0 0 1403.5 374.6" style="enable-background:new 0 0 1403.5 374.6;" xml:space="preserve"> <style type="text/css"> .st0{fill:#39B54A;} .st1{fill:#3C2415;} .st2{fill:#FFFFFF;} .st3{fill:#F9ED32;} </style> <g> <path class="st0" d="M41.5,94.6c1.6-1.6,3.8-2.4,6.6-2.4H75c2.8,0,5,0.8,6.6,2.4c1.6,1.6,2.4,3.8,2.4,6.6v122.5l51.7-64 c2.6-3.4,6.2-5.1,10.8-5.1h33.5c2.6,0,4.5,0.5,5.8,1.5c1.3,1,1.9,2.3,1.9,3.9c0,1.6-0.9,3.5-2.7,5.7l-56.5,65.4l60.1,75.9 c1.6,2.2,2.4,4.1,2.4,5.7c0,1.6-0.7,2.9-2.1,3.9c-1.4,1-3.3,1.5-5.7,1.5H150c-4.6,0-8.3-1.8-11.1-5.4l-38.8-48.4l-16.1,18.5v26.3 c0,2.8-0.8,5-2.4,6.6c-1.6,1.6-3.8,2.4-6.6,2.4H48.1c-2.8,0-5-0.8-6.6-2.4c-1.6-1.6-2.4-3.8-2.4-6.6v-208 C39.1,98.4,39.9,96.2,41.5,94.6z"></path> </g> <g> <path class="st0" d="M238.2,313.6c-13.3-5.8-24.6-14.7-33.8-26.9c-9.8-12.7-14.6-29.5-14.6-50.2c0-16.9,3.9-31.9,11.8-44.8 c7.9-12.9,18.6-23,32.1-30c13.5-7.1,28.7-10.6,45.4-10.6c14.7,0,28.5,3.2,41.4,9.7c12.9,6.5,23.4,15.8,31.5,27.9 c5.4,8,8.9,15.7,10.5,23.3c1.6,7.6,2.4,16.4,2.4,26.6c0,4.2-1.1,7.7-3.3,10.5c-2.2,2.8-5.3,4.2-9.3,4.2h-118 c2.2,10.4,7.7,17.9,16.4,22.7c8.8,4.8,18.2,7.2,28.4,7.2c8.2,0,15.1-1.2,20.9-3.6c5.8-2.4,11-5.8,15.5-10.2c2.6-2.2,5-3.3,7.2-3.3 c1.8,0,3.6,0.6,5.4,1.8l19.4,11.4c3.2,1.8,4.8,4,4.8,6.6c0,1.6-0.8,3.5-2.4,5.7c-18.3,20.5-41.9,30.8-70.8,30.8 C265.2,322.3,251.6,319.4,238.2,313.6z M248.8,199.2c-7.9,6-12.3,13.4-13.3,22.4h82.2c-0.6-5.4-2.6-10.5-6-15.2 c-3.4-4.8-7.9-8.7-13.4-11.7c-5.6-3-12.1-4.5-19.4-4.5C266.7,190.2,256.7,193.2,248.8,199.2z"></path> </g> <g> <path class="st0" d="M439,256.9c0,8.2,1.3,14.3,4,18.4c2.7,4.1,8.1,6.1,16.3,6.1h2.1c6.2,0,9.3,2.9,9.3,8.7v19.7 c0,2.8-0.7,5-2.2,6.7c-1.5,1.7-3.6,2.6-6.4,2.8c-2.6,0.2-6.4,0.3-11.4,0.3c-13.3,0-23.8-1.1-31.4-3.3c-7.6-2.2-13.5-6.2-17.9-12 c-4.4-5.8-6.6-14.3-6.6-25.7v-88.5h-11.1c-2.8,0-5-0.8-6.6-2.4c-1.6-1.6-2.4-3.8-2.4-6.6V160c0-2.8,0.8-5,2.4-6.6 c1.6-1.6,3.8-2.4,6.6-2.4h11.1v-35c0-2.8,0.8-5,2.4-6.6c1.6-1.6,3.8-2.4,6.6-2.4H430c2.8,0,5,0.8,6.6,2.4c1.6,1.6,2.4,3.8,2.4,6.6 v35h23.9c2.8,0,5,0.8,6.6,2.4c1.6,1.6,2.4,3.8,2.4,6.6v21.2c0,2.8-0.8,5-2.4,6.6c-1.6,1.6-3.8,2.4-6.6,2.4H439V256.9z"></path> </g> <g> <path class="st0" d="M647.2,167.2c-10.3-15.9-21.1-28.5-32.4-37.8c-11.3-9.3-21.7-13.9-33-13.9c-11.2,0-21.6,4.6-32.7,13.7 c-11.3,9.4-22,22-32.2,37.9c-10.1,15.9-18.3,33-23,51.5c-4.8,18.9-5.1,36.1,0.5,51.5c5.6,15.7,16.2,28,31.9,37 c15.7,9.1,34.6,13.6,55.2,13.6c20.6,0,39.6-4.6,55.4-13.8c15.9-9.2,26.6-21.6,32.3-37.2c5.7-15.7,5.4-32.7,0.8-51.1 C665.4,200,657.3,182.9,647.2,167.2z M623.5,246.8c-3.3,8.6-8.7,15.3-16.1,20.2c-7.4,4.9-16.1,7.3-25.7,7.3 c-9.6,0-18.3-2.5-25.8-7.5c-7.5-4.7-12.9-11.3-16-19.8c-3.2-8.4-3.9-18.1-2.5-28.8c1.3-10,4.5-19.5,9-28.4 c4.6-8.4,9.9-15.1,16.2-20c6.3-4.9,12.5-7.4,19.3-7.4c7,0,13.3,2.4,19.5,7.2c6.2,5,11.6,11.9,16.1,20.3c4.5,8.5,7.5,17.9,8.8,28.2 C627.5,228.4,626.8,238,623.5,246.8z"></path> </g> <g> <g> <path class="st1" d="M626.2,218.7c2.4,10.3,2.6,19.8-0.1,28.6c-2.8,8.6-8.1,15.3-16.1,20.1c-7.9,4.8-17.6,7.2-28.3,7.2 c-10.7,0-20.4-2.5-28.5-7.4c-8-4.7-13.4-11.3-16.1-19.7c-2.7-8.4-2.4-18,0.1-28.8c2.3-10.1,6.5-19.6,11.6-28.4 c5.1-8.4,10.4-15.1,16.1-20.1c5.7-4.9,11-7.4,16.7-7.4c5.9,0,11.2,2.4,16.9,7.2c5.7,5.1,11.1,11.9,16.1,20.4 C619.7,199,623.8,208.4,626.2,218.7z"></path> </g> <g> <path class="st2" d="M581.7,279.6c-11.7,0-22.4-2.8-31.1-8.2c-9-5.3-15.2-12.9-18.2-22.4c-2.9-8.9-2.9-19.2,0-31.4 c2.3-9.8,6.3-19.6,12.1-29.8c5.4-8.9,11.1-16.1,17.2-21.3c6.8-5.9,13.2-8.6,20-8.6c7,0,13.4,2.7,20.2,8.4 c6.2,5.4,11.9,12.7,17.2,21.7c5.6,9.7,9.7,19.6,12,29.6v0c2.7,11.8,2.7,22-0.2,31.2c-3.2,9.8-9.3,17.4-18.3,22.8 C604,276.9,593.6,279.6,581.7,279.6z M581.7,167.8c-4.3,0-8.6,2-13.5,6.2c-5.3,4.6-10.3,10.9-15.1,18.8c-5.3,9.3-8.9,18.1-11,27 c-2.4,10.5-2.5,19-0.2,26.1c2.3,7.3,6.8,12.8,13.9,16.9c7.2,4.4,16.1,6.7,26,6.7c10,0,18.7-2.2,25.7-6.5c7-4.2,11.5-9.9,13.9-17.4 c2.3-7.4,2.3-16,0-25.9c-2.1-9.1-5.8-18.1-10.9-26.9c-4.7-8.1-9.8-14.5-15.1-19.2C590.6,169.7,586.2,167.8,581.7,167.8z"></path> </g> </g> <g> <path class="st1" d="M750.9,309.2c0,2.8-0.8,5-2.4,6.6c-1.6,1.6-3.8,2.4-6.6,2.4h-26.9c-2.8,0-5-0.8-6.6-2.4 c-1.6-1.6-2.4-3.8-2.4-6.6V194.7h-9.6c-2.8,0-5-0.8-6.6-2.4c-1.6-1.6-2.4-3.8-2.4-6.6v-20.3c0-2.8,0.8-5,2.4-6.6 c1.6-1.6,3.8-2.4,6.6-2.4h9.6c0.8-21.3,6.8-37.5,18.1-48.7c11.3-11.2,27-16.7,47.4-16.7c3.8,0,7.6,0.3,11.4,0.9 c5.6,0.8,8.2,4.2,7.8,10.2l-1.2,18.5c-0.2,5.2-2,7.8-5.4,7.8l-7.5-0.3c-10,0-16.7,2.4-20.3,7.2c-3.6,4.8-5.4,11.9-5.4,21.2h20.6 c2.8,0,5,0.8,6.6,2.4c1.6,1.6,2.4,3.8,2.4,6.6v20.3c0,2.8-0.8,5-2.4,6.6c-1.6,1.6-3.8,2.4-6.6,2.4h-20.6V309.2z"></path> </g> <g> <path class="st1" d="M955.4,193.5c-8.2-13.1-19.1-23.6-32.9-31.2c-13.7-7.6-28.7-11.5-44.8-11.5s-31,3.8-44.5,11.4 c-13.7,7.8-24.6,18.2-32.6,31.4c-8,13.1-12,27.4-12,42.7c0,15.7,4,30.1,12,43c8,13.1,18.8,23.6,32.4,31.2 c13.6,7.7,28.5,11.5,44.7,11.5s31.1-3.9,44.8-11.7c13.7-7.8,24.7-18.2,32.7-31.4c8.1-13.1,12.1-27.4,12.1-42.7 C967.4,220.7,963.4,206.5,955.4,193.5z M916.9,260.1c-4,7.2-9.4,12.8-16.3,16.9c-6.9,4.1-14.5,6.1-22.9,6.1c-8.4,0-16-2.1-23-6.3 c-7-4-12.4-9.5-16.3-16.6c-3.9-7-5.8-15.1-5.8-24.1c0-8.4,2-16.2,6-23.6c4-7,9.5-12.5,16.4-16.6c7-4.1,14.5-6.1,22.7-6.1 c8.4,0,16,2,23,6c7,4.2,12.4,9.8,16.3,16.9c3.9,7.1,5.8,14.9,5.8,23.5C922.9,244.8,920.9,252.8,916.9,260.1z"></path> </g> <g> <path class="st3" d="M922.9,236.2c0,8.6-2,16.5-6,23.9c-4,7.2-9.4,12.8-16.3,16.9c-6.9,4.1-14.5,6.1-22.9,6.1c-8.4,0-16-2.1-23-6.3 c-7-4-12.4-9.5-16.3-16.6c-3.9-7-5.8-15.1-5.8-24.1c0-8.4,2-16.2,6-23.6c4-7,9.5-12.5,16.4-16.6c7-4.1,14.5-6.1,22.7-6.1 c8.4,0,16,2,23,6c7,4.2,12.4,9.8,16.3,16.9C920.9,219.9,922.9,227.7,922.9,236.2z"></path> <path class="st2" d="M877.7,288.1c-9.2,0-17.8-2.4-25.6-7c-7.7-4.4-13.8-10.6-18.1-18.5c-4.3-7.8-6.4-16.7-6.4-26.5 c0-9.2,2.2-17.9,6.6-26c4.5-7.8,10.6-14,18.3-18.5c7.8-4.5,16.2-6.8,25.2-6.8c9.2,0,17.8,2.2,25.5,6.6c7.8,4.7,13.9,11,18.2,18.8 c4.3,7.8,6.4,16.5,6.4,25.9c0,9.4-2.2,18.2-6.6,26.3c-4.4,8-10.5,14.3-18.1,18.8C895.5,285.8,887,288.1,877.7,288.1z M877.7,194.9 c-7.2,0-14,1.8-20.2,5.4c-6.2,3.6-11.1,8.6-14.6,14.8c-3.5,6.5-5.3,13.6-5.3,21.1c0,8.1,1.8,15.4,5.2,21.7 c3.5,6.3,8.2,11.1,14.4,14.7c6.2,3.7,13.1,5.6,20.5,5.6c7.4,0,14.3-1.8,20.3-5.4c6.1-3.6,10.9-8.6,14.5-15 c3.5-6.6,5.4-13.8,5.4-21.5c0-7.7-1.8-14.8-5.2-21.1c-3.5-6.3-8.3-11.3-14.5-15C892.1,196.7,885.2,194.9,877.7,194.9z"></path> </g> <g> <path class="st1" d="M1147.9,193.5c-8.2-13.1-19.1-23.6-32.9-31.2c-13.7-7.6-28.7-11.5-44.8-11.5s-31,3.8-44.5,11.4 c-13.7,7.8-24.6,18.2-32.6,31.4c-8,13.1-12,27.4-12,42.7c0,15.7,4,30.1,12,43c8,13.1,18.8,23.6,32.4,31.2 c13.6,7.7,28.5,11.5,44.7,11.5s31.1-3.9,44.8-11.7c13.7-7.8,24.7-18.2,32.7-31.4c8.1-13.1,12.1-27.4,12.1-42.7 C1159.8,220.7,1155.8,206.5,1147.9,193.5z M1109.3,260.1c-4,7.2-9.4,12.8-16.3,16.9c-6.9,4.1-14.5,6.1-22.9,6.1s-16-2.1-23-6.3 c-7-4-12.4-9.5-16.3-16.6c-3.9-7-5.8-15.1-5.8-24.1c0-8.4,2-16.2,6-23.6c4-7,9.5-12.5,16.4-16.6c7-4.1,14.5-6.1,22.7-6.1 c8.4,0,16,2,23,6c7,4.2,12.4,9.8,16.3,16.9c3.9,7.1,5.8,14.9,5.8,23.5C1115.3,244.8,1113.3,252.8,1109.3,260.1z"></path> </g> <g> <path class="st3" d="M1115.3,236.2c0,8.6-2,16.5-6,23.9c-4,7.2-9.4,12.8-16.3,16.9c-6.9,4.1-14.5,6.1-22.9,6.1s-16-2.1-23-6.3 c-7-4-12.4-9.5-16.3-16.6c-3.9-7-5.8-15.1-5.8-24.1c0-8.4,2-16.2,6-23.6c4-7,9.5-12.5,16.4-16.6c7-4.1,14.5-6.1,22.7-6.1 c8.4,0,16,2,23,6c7,4.2,12.4,9.8,16.3,16.9C1113.4,219.9,1115.3,227.7,1115.3,236.2z"></path> <path class="st2" d="M1070.2,288.1c-9.2,0-17.8-2.4-25.6-7c-7.7-4.4-13.8-10.6-18.1-18.5c-4.3-7.8-6.4-16.7-6.4-26.5 c0-9.2,2.2-17.9,6.6-26c4.5-7.8,10.6-14,18.3-18.5c7.8-4.5,16.2-6.8,25.2-6.8c9.2,0,17.8,2.2,25.5,6.6c7.8,4.7,13.9,11,18.2,18.8 c4.3,7.8,6.4,16.5,6.4,25.9c0,9.4-2.2,18.2-6.6,26.3c-4.5,8-10.5,14.3-18.1,18.8C1088,285.8,1079.4,288.1,1070.2,288.1z M1070.2,194.9c-7.2,0-14,1.8-20.2,5.4c-6.2,3.6-11.1,8.6-14.6,14.8c-3.5,6.5-5.3,13.6-5.3,21.1c0,8.1,1.8,15.4,5.2,21.7 c3.5,6.3,8.2,11.1,14.4,14.7c6.3,3.8,13,5.6,20.5,5.6c7.4,0,14.3-1.8,20.3-5.4c6.1-3.6,10.9-8.6,14.5-15c3.5-6.6,5.4-13.8,5.4-21.5 c0-7.7-1.8-14.8-5.2-21.1c-3.5-6.3-8.3-11.3-14.5-15C1084.5,196.7,1077.6,194.9,1070.2,194.9z"></path> </g> <g> <path class="st1" d="M1310.8,315.7c-1.6-1.6-2.4-3.8-2.4-6.6v-7.5c-4,5.4-10.7,10.1-20,14c-9.4,4-19.3,6-29.9,6 c-16.7,0-31.4-3.7-43.9-11.2c-12.6-7.5-22.1-17.9-28.7-31.2c-6.6-12.9-9.9-27.4-9.9-43.3c0-16.1,3.3-30.7,10-43.6 c6.7-12.9,16.2-23.2,28.5-30.8c12.4-7.6,27-11.4,43.9-11.4c11,0,20.8,1.9,29.6,5.7c8.8,3.8,15.5,8.8,20.3,14.9v-69.6 c0-2.8,0.8-5,2.4-6.6c1.6-1.6,3.8-2.4,6.6-2.4h26.3c2.8,0,5,0.8,6.6,2.4c1.6,1.6,2.4,3.8,2.4,6.6v208c0,2.8-0.8,5-2.4,6.6 c-1.6,1.6-3.8,2.4-6.6,2.4h-26.3C1314.6,318.1,1312.4,317.3,1310.8,315.7z M1297.8,202.2c-8.3-8.6-19.2-12.9-32.7-12.9 c-13.7,0-24.7,4.3-32.9,12.9c-8.2,8.6-12.3,19.8-12.3,33.8c0,13.6,4.2,24.7,12.6,33.3c8.4,8.7,19.2,13,32.6,13 c13.9,0,25-4.1,33-12.4c8.1-8.3,12.1-19.6,12.1-33.9C1310.2,222,1306.1,210.7,1297.8,202.2z"></path> </g> <g> <path class="st0" d="M551.5,67.4c3.2,8.3,8.4,15.3,14.9,21.3c1.3,1.2,17.7,12.1,17.7,12.3c1.9-13.9,0.3-28.6-6.3-41 c-6.6-12.4-18.6-22.3-32.4-24.7C545.8,46.3,547.5,57.2,551.5,67.4z"></path> </g> <g> <path class="st0" d="M616.2,94c-5,3.1-10.5,4.8-16.4,5.5c-1.2,0.1-14.2-0.6-14.3-0.4c4.5-8.2,11.2-15.4,19.6-19.4 c8.5-4,18.8-4.5,27.1-0.3C627.6,84.9,622.4,90.1,616.2,94z"></path> </g> </svg> 